<svg xmlns="http://www.w3.org/2000/svg" viewBox="0 0 64 64">
  <defs>
    <linearGradient id="bg" x1="0" y1="0" x2="1" y2="1">
      <stop offset="0%" stop-color="#1a1f30"/>
      <stop offset="100%" stop-color="#0d111c"/>
    </linearGradient>
  </defs>
  <rect width="64" height="64" rx="14" fill="url(#bg)"/>
  <path
    d="M19 22h26c5 0 9 4 9 9v3c0 4-3 7-7 7-3 0-5-2-7-4l-2-2H26l-2 2c-2 2-4 4-7 4-4 0-7-3-7-7v-3c0-5 4-9 9-9z"
    fill="#ff6b3d"
  />
  <circle cx="42" cy="32" r="2.2" fill="#0d111c"/>
  <circle cx="48" cy="32" r="2.2" fill="#0d111c"/>
  <rect x="17" y="30.5" width="8" height="3" rx="1.2" fill="#0d111c"/>
  <rect x="20" y="27.5" width="2" height="9" rx="1" fill="#0d111c"/>
</svg>
